<?xml version="1.0" encoding="UTF-8"?>
<svg id="Calque_1" data-name="Calque 1" xmlns="http://www.w3.org/2000/svg" viewBox="0 0 75.56 50.27">
  <defs>
    <style>
      .cls-1 {
        fill: #fff;
      }
    </style>
  </defs>
  <path class="cls-1" d="M31.4,14.07h-.49S34.65.89,20.99.89h-3.25l-5.12,23.75h4.64c6.43,0,8.54-9.11,8.54-9.11h.57l-4.07,19.2h-.57s1.79-9.11-4.64-9.11c-.73,0-2.68-.08-4.64-.08l-5.04,23.84h3.25c13.66,0,15.54-13.18,15.54-13.18h.49l-3.01,14.07H0l.24-.81s2.28-.49,2.68-2.28L12.28,3.09c.33-1.79-1.71-2.36-1.71-2.36l.16-.73h23.67l-3.01,14.07Z"/>
  <path class="cls-1" d="M70.36,0h5.21l-.16.73s-2.36.57-2.68,2.36l-10.09,47.18h-.49L49.29,3.09l-9.36,44.09c-.41,1.79,1.71,2.28,1.71,2.28l-.24.81h-5.21l.24-.81s2.28-.49,2.68-2.28L48.47,3.09c.33-1.79-1.71-2.28-1.71-2.28l.16-.81h7.08l10.41,38.15,7.48-35.06c.33-1.79-1.71-2.36-1.71-2.36l.16-.73Z"/>
</svg>