<?xml version="1.0" encoding="UTF-8"?>
<svg id="Calque_1" data-name="Calque 1" xmlns="http://www.w3.org/2000/svg" viewBox="0 0 154.29 261.3">
  <defs>
    <style>
      .cls-1 {
        fill: #fff;
      }
    </style>
  </defs>
  <path class="cls-1" d="M77.83,261.3s-1.29-92.73-3.44-130.32c-.68-11.88-2.46-27.88-11.11-36.84-14.4-14.9-44.76-12.55-63.28-15.26,14.69-1.37,30.82-.95,45.21-4.13,3.14-.69,5.95-1.58,8.49-2.7,7.22-3.2,12.18-8.37,15.81-16.78,7.51-17.41,5.6-36.68,7.64-55.26,3.11,25.89-.2,67.79,32.66,75.41,14.21,3.3,30.06,2.53,44.49,4.86-18.48,2.03-55.25-.64-65.46,18.64-4.18,7.88-5.4,22.37-6.12,31.41-2.83,35.72-3.68,73.81-4.9,109.76-.24,7.05.24,14.17.02,21.22Z"/>
</svg>