<?xml version="1.0" encoding="UTF-8"?>
<svg id="Calque_1" data-name="Calque 1" xmlns="http://www.w3.org/2000/svg" viewBox="0 0 1117.15 85.03">
  <defs>
    <style>
      .cls-1 {
        fill: #fff;
      }
    </style>
  </defs>
  <path class="cls-1" d="M35.34,30.11s-2.9.7-3.3,2.9l-6.3,29.21-5.2-3c-2.3,2-4.9,3.4-7.3,3.4C-2.57,62.62-.57,39.61,1.13,31.31,2.93,23.01,10.74,0,26.54,0c6.1,0,8.8,5.1,10.7.4l.7.1-3.7,17.21h-.7c2-7.9-1-16.71-7.3-16.4-7.3.3-15.81,15-19.01,30.01s-.9,29.81,6.2,30.11c6.2.2,7.8-6.31,8-7.4l4.5-21.01c.4-2.2-2.1-2.9-2.1-2.9l.2-.9h11.51l-.2.9Z"/>
  <path class="cls-1" d="M75.34,35.11h-.7c1.3-6-2-15.1-7.3-15.01-6.8,0-9.1,11.5-10.3,16.91l-4.6,21.5c-.4,2.1,2.1,2.7,2.1,2.7l-.3,1h-11.4l.3-1s.3,0,.8-.2c.6-.3,1.3-.7,1.8-1.3.3-.4.6-.8.7-1.3l7.5-35.72c.4-2.2-2.1-2.8-2.1-2.8l.2-.9h8.8l-1.3,6.4c1.7-3.6,4.3-6.4,8.3-6.4h10.9l-3.4,16.1Z"/>
  <path class="cls-1" d="M112.65,61.22l-.3,1h-4.7c-3.1,0-3.5-2.5-2.9-5.6l.5-2.3c-2.8,5.01-7.5,8.1-12.4,8.1-5.4,0-11.1-3.6-9.5-11.4,3.7-17.3,24.81-11.9,27.21-23.21.5-5.2-.5-7.9-4.7-7.7-6.7.1-13.2,10.01-14.2,15.61h-.7l3.5-16.71h11.6c13.91,0,9.5,15.6,8.3,21.51l-3.8,17.91c-.5,2.2,2.1,2.8,2.1,2.8ZM106.54,48.12l3.5-16.21c-1.5,1.6-3.8,2.7-6.4,3.8-10.6,4.1-12.8,8.9-14,14.51-1.4,6.7,1.8,10.9,5,10.9,4.3,0,10.3-5.1,11.9-13Z"/>
  <path class="cls-1" d="M159.65,40.91c-1.3,5.9-3.6,11.4-6.8,15.6-3.1,4.2-5.9,6.6-9.2,6.6-5.8,0-7.4-7-7.4-13.51l-5.8,27.31c-.4,2.2,2,2.8,2,2.8l-.2.9h-11.3l.2-.9s2.7-.6,3.2-2.8l11.5-54.22c.4-2.2-2.1-2.8-2.1-2.8l.2-.9h8.8l-1.8,8.7c3.5-7.11,8.3-8.5,10.1-8.7,4.7-.4,7.1,2.2,8.4,6.4,1.4,4.2,1.4,9.7.2,15.51ZM151.05,20.01c-3,0-9.3,3.7-11.8,15.6l-1.1,5.3c-1.7,7.9-1.1,20.6,4.2,20.2,9.5-.6,17.61-41.11,8.7-41.11Z"/>
  <path class="cls-1" d="M201.55,61.22l-.3,1h-11.5l.3-1s2.7-.6,3.3-2.8l3.7-17.41c.3-2.2,1.2-5.9,1.4-6.8,1.7-8.1.3-15.3-6-14.6-4.6.5-8.1,5.4-9.8,12.9l-5.5,25.91c-.5,2.2,2,2.8,2,2.8l-.3,1h-11.4l.3-1s2.7-.6,3.3-2.8l11.5-54.22c.3-2.2-2.1-2.8-2.1-2.8l.2-1h8.8l-5.4,25.21c1.8-3.6,4.5-6.6,8.7-7,11.5-1.3,13.51,7.4,11.8,15.6l-5.1,24.21c-.4,2.2,2.1,2.8,2.1,2.8Z"/>
  <path class="cls-1" d="M226.35,61.22l-.3,1h-11.4l.3-1s2.7-.6,3.3-2.8l7.5-35.72c.4-2.2-2.1-2.8-2.1-2.8l.2-.9h8.8l-8.3,39.42c-.5,2.2,2,2.8,2,2.8ZM226.45,12.4c.5-2.1,2.5-3.7,4.6-3.7s3.5,1.6,3,3.7c-.4,2.1-2.5,3.81-4.6,3.81s-3.4-1.7-3-3.81Z"/>
  <path class="cls-1" d="M270.16,35.01c1.4-5.51,1.9-15.41-7.2-15.41s-13.61,6.4-5,16.5c1.9,2.3,3.2,3.6,4.7,5.1,3.9,4.1,6,8.6,5.1,12.91-1.2,5.5-6.7,8.4-15.41,8.4s-12.2-.3-12.2-.3l3.5-16.1h.6c-1.4,5.6-.7,15.4,8.3,15.4s12.11-8.2,4.6-16.21l-5.4-5.9c-4-4.4-5.7-8.2-5-11.21,1.4-6.9,7.8-9.6,16.41-9.6s11.1.4,11.1.4l-3.4,16.01h-.7Z"/>
  <path class="cls-1" d="M334.77,61.22l-.3,1h-11.41l.3-1s2.7-.6,3.2-2.8l5.5-25.91h.1c1.6-7.6,2.5-12.9-3.4-12.9-4.5,0-9.9,5.6-11.5,13.2l-5.4,25.61c-.4,2.2,2.1,2.8,2.1,2.8l-.3,1h-11.5l.3-1s2.7-.6,3.3-2.8l5.5-25.91c1.6-7.6,2.5-12.9-3.4-12.9-4.4,0-9.8,5.6-11.41,13.3l-5.4,25.51c-.5,2.2,2,2.8,2,2.8l-.3,1h-11.4l.3-1s2.7-.6,3.3-2.8l7.5-35.72c.4-2.2-2.1-2.8-2.1-2.8l.2-.9h8.8l-1.6,7.6c2.3-4.5,5.9-8,10.8-8,7.2,0,9.3,4.2,9.2,9.9,2.2-5.4,6.1-9.9,11.61-9.9,8.9,0,10.1,6.3,8.8,13.9h.1l-5.5,25.91c-.5,2.2,2,2.8,2,2.8Z"/>
  <path class="cls-1" d="M357.86,47.82c.2,7.7,3.4,13.8,8.9,13.8,3,0,9.2-2.1,13.31-11.4l.6.1c-1.5,3.8-6.6,12.4-14.2,12.4-15.81,0-15.21-16.21-14.01-22.11,1.3-5.9,7.61-22.11,23.41-22.11,7.9,0,10.3,4.8,9.4,10.11-1.7,10.7-22.91,17.81-27.41,19.21ZM375.66,19.61c-7.2,0-14.8,10.4-17.11,21-.4,2.2-.7,4.4-.7,6.4,20.2-5.7,27.31-27.41,17.81-27.41Z"/>
  <path class="cls-1" d="M396.66,63.02c-1.8,0-2.9-1.5-2.5-3.3.3-1.7,2.1-3.2,3.9-3.2s2.9,1.5,2.6,3.2c-.4,1.8-2.2,3.3-4,3.3Z"/>
  <path class="cls-1" d="M466.77,1.3s-2.8.7-3.2,2.9l-11.5,54.22c-.5,2.2,2,2.8,2,2.8l-.3,1h-11.4l.3-1s2.8-.6,3.3-2.8l11.5-54.22c.4-2.2-2.1-2.9-2.1-2.9l.2-.9h11.4l-.2.9Z"/>
  <path class="cls-1" d="M500.47,61.32l-.2,1c-9.2-1.7-12.8.2-17.11.2-5.5,0-7.9-2.1-9.3-6.4-1.3-4.1-1.3-9.6-.1-15.51,1.3-5.9,3.7-11.4,6.71-15.5,3.2-4.3,6.8-6.6,10-6.6,5.9,0,7.4,7,7.51,13.51,0,0,4.6-21.01,5.9-27.91.4-2.1-2-2.8-2-2.8l.2-.9,8.7.1-12.4,58.02c-.4,2.2,2.1,2.8,2.1,2.8ZM496.07,40.61c1.7-7.9,1.1-20.6-4.3-20.2-9.4.6-15.51,41.31-8.3,41.31,3,0,6.2-1,8.4-1.2l4.2-19.91Z"/>
  <path class="cls-1" d="M523.66,47.82c.2,7.7,3.4,13.8,8.9,13.8,3,0,9.2-2.1,13.31-11.4l.6.1c-1.5,3.8-6.6,12.4-14.2,12.4-15.81,0-15.21-16.21-14.01-22.11,1.3-5.9,7.61-22.11,23.41-22.11,7.9,0,10.3,4.8,9.4,10.11-1.7,10.7-22.91,17.81-27.41,19.21ZM541.47,19.61c-7.2,0-14.8,10.4-17.11,21-.4,2.2-.7,4.4-.7,6.4,20.2-5.7,27.31-27.41,17.81-27.41Z"/>
  <path class="cls-1" d="M592.48,61.22l-.3,1h-11.5l.3-1s2.7-.6,3.3-2.8l3.7-17.41c.3-2.2.7-3.7.7-3.7l.7-3.1c1.7-8.1.3-15.3-6-14.6-4.6.5-8.1,5.4-9.8,12.9l-5.5,25.91c-.5,2.2,2,2.8,2,2.8l-.3,1h-11.4l.3-1s2.7-.6,3.3-2.8l7.51-35.72c.4-2.2-2.1-2.8-2.1-2.8l.2-.9h8.8l-1.4,6.6c1.8-3.6,4.5-6.6,8.7-7,11.5-1.3,13.51,7.4,11.81,15.6l-5.1,24.21c-.4,2.2,2.1,2.8,2.1,2.8Z"/>
  <path class="cls-1" d="M626.78,49.11l-2.8,13.11h-6.7c-12.51,0-8.6-12.21-7.3-18.21l5.1-24.01h-3.5l.2-1h3.5c2.8,0,5.4-3.4,6.7-9.8h1.5l-2.1,9.8h5.6l-.2,1h-5.6l-5.1,24.01c-1.1,5.4-3.9,17.11,1.5,17.11s7.7-6.5,8.6-12h.6Z"/>
  <path class="cls-1" d="M649.07,61.22l-.3,1h-11.4l.3-1s2.7-.6,3.3-2.8l7.51-35.72c.4-2.2-2.1-2.8-2.1-2.8l.2-.9h8.8l-8.3,39.42c-.5,2.2,2,2.8,2,2.8ZM649.17,12.4c.5-2.1,2.5-3.7,4.6-3.7s3.5,1.6,3,3.7c-.4,2.1-2.5,3.81-4.6,3.81s-3.4-1.7-3-3.81Z"/>
  <path class="cls-1" d="M683.38,49.11l-2.8,13.11h-6.7c-12.51,0-8.6-12.21-7.3-18.21l5.1-24.01h-3.5l.2-1h3.5c2.8,0,5.4-3.4,6.71-9.8h1.5l-2.1,9.8h5.6l-.2,1h-5.6l-5.11,24.01c-1.1,5.4-3.9,17.11,1.5,17.11s7.7-6.5,8.6-12h.6Z"/>
  <path class="cls-1" d="M701.98,47.82c.2,7.7,3.4,13.8,8.9,13.8,3,0,9.2-2.1,13.31-11.4l.6.1c-1.5,3.8-6.6,12.4-14.2,12.4-15.81,0-15.21-16.21-14.01-22.11,1.3-5.9,7.61-22.11,23.41-22.11,7.9,0,10.3,4.8,9.4,10.11-1.7,10.7-22.91,17.81-27.41,19.21ZM719.78,19.61c-7.2,0-14.8,10.4-17.11,21-.4,2.2-.7,4.4-.7,6.4,20.2-5.7,27.31-27.41,17.81-27.41ZM727.09,1.6l1,5-14.81,8,.4-1.8,13.41-11.21Z"/>
  <path class="cls-1" d="M740.78,63.02c-1.8,0-2.9-1.5-2.5-3.3.3-1.7,2.1-3.2,3.9-3.2s2.9,1.5,2.6,3.2c-.4,1.8-2.2,3.3-4,3.3Z"/>
  <path class="cls-1" d="M844.5,1.3s-2.9.7-3.3,2.9l-11.5,54.22c-.5,2.2,2.1,2.8,2.1,2.8l-.3,1h-11.5l.3-1s2.8-.6,3.3-2.8l11.6-54.92-21.4,37.51-3.6,6.31h-2l-6-41.32-11.1,52.42c-.5,2.2,2.1,2.8,2.1,2.8l-.2.9h-6.4l.2-.9s2.8-.6,3.3-2.8l11.5-54.52c.2-2-2.1-2.5-2.1-2.5l.2-1h8.2l5.7,39.11L835.9.4h8.8l-.2.9Z"/>
  <path class="cls-1" d="M855.89,47.82c.2,7.7,3.4,13.8,8.9,13.8,3,0,9.21-2.1,13.31-11.4l.6.1c-1.5,3.8-6.6,12.4-14.21,12.4-15.81,0-15.2-16.21-14-22.11,1.3-5.9,7.6-22.11,23.41-22.11,7.9,0,10.3,4.8,9.4,10.11-1.7,10.7-22.91,17.81-27.41,19.21ZM873.69,19.61c-7.2,0-14.8,10.4-17.1,21-.4,2.2-.7,4.4-.7,6.4,20.21-5.7,27.31-27.41,17.81-27.41Z"/>
  <path class="cls-1" d="M921.3,35.01c1.4-5.51,1.9-15.41-7.2-15.41s-13.6,6.4-5,16.5c1.9,2.3,3.2,3.6,4.7,5.1,3.9,4.1,6,8.6,5.1,12.91-1.2,5.5-6.7,8.4-15.41,8.4s-12.21-.3-12.21-.3l3.5-16.1h.6c-1.4,5.6-.7,15.4,8.3,15.4s12.11-8.2,4.61-16.21l-5.4-5.9c-4-4.4-5.7-8.2-5-11.21,1.4-6.9,7.8-9.6,16.41-9.6s11.1.4,11.1.4l-3.4,16.01h-.7Z"/>
  <path class="cls-1" d="M963.2,35.01c1.4-5.51,1.9-15.41-7.2-15.41s-13.6,6.4-5,16.5c1.9,2.3,3.2,3.6,4.7,5.1,3.9,4.1,6,8.6,5.1,12.91-1.2,5.5-6.7,8.4-15.41,8.4s-12.21-.3-12.21-.3l3.5-16.1h.6c-1.4,5.6-.7,15.4,8.3,15.4s12.11-8.2,4.61-16.21l-5.4-5.9c-4-4.4-5.7-8.2-5-11.21,1.4-6.9,7.8-9.6,16.41-9.6s11.1.4,11.1.4l-3.4,16.01h-.7Z"/>
  <path class="cls-1" d="M1005.1,61.22l-.3,1h-4.7c-3.1,0-3.5-2.5-2.9-5.6l.5-2.3c-2.8,5.01-7.51,8.1-12.4,8.1-5.4,0-11.1-3.6-9.5-11.4,3.7-17.3,24.81-11.9,27.21-23.21.5-5.2-.5-7.9-4.7-7.7-6.7.1-13.2,10.01-14.2,15.61h-.7l3.5-16.71h11.61c13.9,0,9.5,15.6,8.3,21.51l-3.8,17.91c-.5,2.2,2.1,2.8,2.1,2.8ZM999,48.12l3.5-16.21c-1.5,1.6-3.8,2.7-6.4,3.8-10.6,4.1-12.8,8.9-14,14.51-1.4,6.7,1.8,10.9,5.01,10.9,4.3,0,10.3-5.1,11.9-13Z"/>
  <path class="cls-1" d="M1036.4,67.42c7.91,3,11.31,4.6,10.6,9-.5,4.5-7.1,8.6-17.2,8.6-21.91,0-16.61-18.81-5.4-19.21,0-.9.3-1.8.7-2.6,1.2-2,2.5-4,4.6-4.4-5.8-2.7-8.6-10.51-6.6-19.71,2.4-11.31,11.21-20.51,19.81-20.51h.5c2.6-5.2,8-11.21,17.3-11.21l-2.1,9.9c0-.3-.9-5.5-5.7-5.2-4.1.3-6.7,3-8.6,6.6,7.7.9,12,9.7,9.8,20.41-2.5,11.4-11.41,20.61-19.91,20.61-.8,0-1.6,0-2.4-.2-3.4.3-3.9,4.6,4.6,7.91ZM1024.4,66.52c-7.1.1-11.61,17.41,5.6,17.41,4.6,0,10.1-1.7,10.81-4.3,1-3.8-2.4-4.7-9.9-7.3-4.4-1.4-6.2-3.6-6.5-5.8ZM1034.4,58.82c5.2,0,11.4-9.8,13.5-19.71,2-9.8,0-19.61-5.2-19.61s-11.5,9.8-13.5,19.61c-2.1,9.9,0,19.71,5.2,19.71Z"/>
  <path class="cls-1" d="M1074.3,47.82c.2,7.7,3.4,13.8,8.9,13.8,3,0,9.21-2.1,13.31-11.4l.6.1c-1.5,3.8-6.6,12.4-14.21,12.4-15.81,0-15.2-16.21-14-22.11,1.3-5.9,7.6-22.11,23.41-22.11,7.9,0,10.3,4.8,9.4,10.11-1.7,10.7-22.91,17.81-27.41,19.21ZM1092.1,19.61c-7.2,0-14.8,10.4-17.1,21-.4,2.2-.7,4.4-.7,6.4,20.21-5.7,27.31-27.41,17.81-27.41Z"/>
  <path class="cls-1" d="M1113.1,63.02c-1.8,0-2.9-1.5-2.5-3.3.3-1.7,2.1-3.2,3.9-3.2s2.9,1.5,2.6,3.2c-.4,1.8-2.2,3.3-4,3.3Z"/>
</svg>