<?xml version="1.0" encoding="UTF-8"?>
<svg id="Calque_1" data-name="Calque 1" xmlns="http://www.w3.org/2000/svg" viewBox="0 0 136.17 39.68">
  <defs>
    <style>
      .cls-1 {
        fill: #fff;
      }
    </style>
  </defs>
  <path class="cls-1" d="M19.52,0h4.11l-.13.64s-1.8.32-2.57,1.54L5.71,39.68H1.73L1.6,2.44C1.48.9,0,.64,0,.64l.13-.64h7.45l-.13.64s-1.86,0-1.86,1.67v.13h.06l.13,35.51L20.1,2.44h-.06c.77-1.48-.64-1.8-.64-1.8l.13-.64Z"/>
  <path class="cls-1" d="M44.94,6.04c1.03,3.79,1.09,8.48-.06,13.81-1.09,5.33-3.15,10.02-5.84,13.81-2.7,3.85-5.72,6.04-8.48,6.04s-4.75-2.18-5.84-6.04c-1.03-3.79-1.03-8.47.06-13.81,1.16-5.33,3.15-10.02,5.84-13.81,2.7-3.92,5.71-6.04,8.41-6.04s4.81,2.12,5.91,6.04ZM40.96,19.84c2.05-9.57,1.41-19.14-2.05-19.14s-8.16,9.57-10.21,19.14-1.41,19.14,2.05,19.14,8.16-9.57,10.21-19.14Z"/>
  <path class="cls-1" d="M57.72,0h21l-2.37,11.11h-.45s2.57-9.12-5.91-10.27l-7.71,36.41c-.32,1.41,1.35,1.8,1.35,1.8l-.19.64h-7.39l.19-.64s1.8-.39,2.12-1.8L66.06.83c-8.99,1.16-10.27,10.27-10.27,10.27h-.45l2.38-11.11Z"/>
  <path class="cls-1" d="M95.4,20.68c3.47.9,5.97,3.47,4.5,10.34l-1.35,6.42c-.26,1.28.26,1.67,1.35,1.67l-.13.58h-3.66c-1.6,0-2.63-1.35-2.31-2.95l1.28-5.91c1.29-6.1.77-10.08-5.26-10.08l-3.47,16.5c-.32,1.41,1.28,1.8,1.28,1.8l-.13.58h-1.67l-.06.06h-3.92l.06-.06h-1.73l.13-.58s1.8-.39,2.12-1.8l7.38-34.8c.26-1.41-1.35-1.8-1.35-1.8l.13-.64h9.89c4.81,0,8.92,3.98,7.64,9.89-1.16,5.59-6.1,10.15-10.72,10.79ZM101.24,9.82c1.22-5.71-.9-9.12-3.85-9.12h-3.27l-4.17,19.39h3.27c3.34,0,6.94-5.01,8.03-10.27Z"/>
  <path class="cls-1" d="M133.79,11.11h-.39s2.95-10.4-7.83-10.4h-2.57l-4.05,18.75h3.66c5.07,0,6.74-7.19,6.74-7.19h.45l-3.21,15.15h-.45s1.41-7.19-3.66-7.19c-.58,0-2.12-.06-3.66-.06l-3.98,18.81h2.57c10.79,0,12.26-10.4,12.26-10.4h.38l-2.37,11.11h-18.69l.19-.64s1.8-.39,2.12-1.8l7.38-34.8c.26-1.41-1.35-1.86-1.35-1.86l.13-.58h18.69l-2.38,11.11Z"/>
</svg>