<?xml version="1.0" encoding="UTF-8"?>
<svg id="Calque_1" data-name="Calque 1" xmlns="http://www.w3.org/2000/svg" viewBox="0 0 89.28 151.2">
  <defs>
    <style>
      .cls-1 {
        fill: #fff;
      }
    </style>
  </defs>
  <path class="cls-1" d="M45.04,151.2s-.75-53.66-1.99-75.41c-.39-6.87-1.45-16.1-6.43-21.32-8.22-8.61-25.66-7.24-36.62-8.83,8.5-.79,17.83-.55,26.16-2.39,6.98-1.55,11.22-4.7,14.06-11.28,4.35-10.07,3.24-21.23,4.42-31.98,1.8,14.98-.12,39.23,18.9,43.64,8.22,1.91,17.4,1.46,25.74,2.81-10.69,1.17-31.97-.37-37.88,10.78-2.42,4.56-3.13,12.94-3.54,18.18-1.64,20.67-2.13,42.71-2.84,63.51-.14,4.08.14,8.2.01,12.28Z"/>
</svg>

